<svg width="126" height="126" viewBox="0 0 126 126" fill="none" xmlns="http://www.w3.org/2000/svg">
<path d="M0.0859375 66.0731C0.967937 64.7793 2.21872 64.4136 3.72764 64.5211C4.98457 64.6072 6.25379 64.5211 7.51072 64.5672C8.97662 64.641 9.9293 65.5967 9.96925 66.9182C9.9837 67.2437 9.93251 67.5687 9.81872 67.8739C9.70494 68.1792 9.53088 68.4584 9.30693 68.695C9.08297 68.9315 8.8137 69.1206 8.51514 69.2509C8.21659 69.3813 7.89485 69.4502 7.56911 69.4536C5.8635 69.5365 4.15174 69.5027 2.44306 69.4536C1.31213 69.4259 0.66062 68.63 0.0859375 67.7756V66.0731Z" fill="#97BF57"/>
<path d="M65.3421 14.7511C65.3421 17.4862 65.3913 20.2244 65.3176 22.9565C65.2903 23.5156 65.057 24.0448 64.6626 24.4421C64.2682 24.8393 63.7406 25.0765 63.1817 25.1077C62.6294 25.1649 62.0743 25.0285 61.6113 24.7219C61.1484 24.4153 60.8062 23.9575 60.6433 23.4267C60.5239 23.0812 60.4586 22.7195 60.4496 22.3541C60.4374 17.2506 60.4374 12.1451 60.4496 7.03745C60.4496 5.34413 61.4269 4.27159 62.8805 4.25008C64.4171 4.21628 65.3759 5.23657 65.4005 7.04359C65.4374 9.61891 65.4005 12.1912 65.4005 14.7634L65.3421 14.7511Z" fill="#97BF57"/>
<path d="M97.5854 34.9235C96.4822 34.942 95.7415 34.4994 95.2836 33.642C95.0693 33.2709 94.9616 32.8478 94.9724 32.4194C94.9833 31.991 95.1122 31.574 95.3451 31.2142C95.7262 30.575 96.2947 30.1048 96.811 29.5854C99.0647 27.3318 101.312 25.0842 103.554 22.8429C104.432 21.967 105.45 21.5706 106.642 22.1514C107.721 22.6769 108.136 23.5958 107.985 24.7698C107.899 25.452 107.475 25.956 107.014 26.42C104.51 28.9319 102.003 31.4385 99.4908 33.9401C98.9376 34.4902 98.3414 34.9696 97.5854 34.9235Z" fill="#97BF57"/>
<path d="M30.9227 32.3913C30.9209 32.8297 30.8031 33.2597 30.5813 33.6378C30.3595 34.0159 30.0415 34.3285 29.6597 34.5439C29.2779 34.7593 28.8459 34.8698 28.4076 34.8641C27.9693 34.8585 27.5403 34.7369 27.1642 34.5118C26.9201 34.3645 26.6933 34.1903 26.4881 33.9924C23.9128 31.4233 21.3395 28.851 18.7683 26.2757C18.1536 25.6611 17.6988 24.9204 17.8463 23.9923C18.1536 22.0378 20.3786 21.0974 21.8414 22.4557C24.7302 25.1632 27.4715 28.0305 30.2742 30.8332C30.7321 31.2911 30.7813 31.915 30.9227 32.3913Z" fill="#97BF57"/>
<path d="M120.745 64.5887C121.683 64.5887 122.623 64.5242 123.551 64.6072C124.101 64.6563 124.615 64.8999 125.002 65.2942C125.388 65.6885 125.621 66.2076 125.659 66.7584C125.758 67.9139 125.131 69.0418 123.972 69.2569C121.812 69.6733 119.592 69.6733 117.432 69.2569C116.262 69.0202 115.711 67.9538 115.825 66.7369C115.851 66.1829 116.081 65.658 116.471 65.2636C116.861 64.8691 117.383 64.6331 117.936 64.601C118.858 64.5211 119.808 64.5857 120.745 64.5857V64.5887Z" fill="#97BF57"/>
<path d="M65.3661 30.9806C65.3539 31.6173 65.0978 32.225 64.6506 32.6785C64.2035 33.1319 63.5994 33.3965 62.9629 33.4176C62.3035 33.3909 61.6784 33.1162 61.2129 32.6483C60.7473 32.1805 60.4756 31.5541 60.4521 30.8946C60.4848 30.2375 60.7738 29.6195 61.257 29.173C61.7402 28.7266 62.3791 28.4874 63.0367 28.5067C63.3528 28.5138 63.6644 28.5837 63.9532 28.7124C64.2421 28.841 64.5025 29.0258 64.7193 29.256C64.936 29.4862 65.1049 29.7573 65.2159 30.0533C65.327 30.3494 65.378 30.6646 65.3661 30.9806Z" fill="#97BF57"/>
<path d="M111.166 62.9385C106.863 56.2973 102.561 49.6777 98.286 43.0243C96.8601 40.8024 94.9578 39.7606 92.2749 39.779C82.4684 39.8436 72.6589 39.8036 62.8524 39.8036C53.0459 39.8036 43.2363 39.8405 33.4298 39.779C30.7931 39.7637 28.9307 40.8209 27.5294 42.9967C23.2269 49.6777 18.8814 56.3312 14.5575 62.9969C12.6921 65.8703 12.8795 68.3534 15.1506 70.9041L58.0398 119.039C61.073 122.444 64.6533 122.466 67.6742 119.076C81.9726 103.036 96.27 86.9932 110.566 70.9472C112.884 68.3442 113.074 65.8918 111.166 62.9385ZM90.1575 44.8283L78.7868 62.416L67.4007 44.8283H90.1575ZM63.3256 47.6494C66.8444 53.132 70.3939 58.5961 73.9281 64.0694C73.9925 64.2122 74.0409 64.3616 74.0725 64.515H51.792C51.6292 64.1739 51.8873 63.9772 52.0348 63.7529C55.4624 58.4527 58.8911 53.1535 62.3207 47.8553C62.5574 47.4927 62.7079 46.6875 63.3256 47.6494ZM58.3901 44.7545L47.0194 62.3853L35.621 44.7637L58.3901 44.7545ZM31.0051 46.789L42.4434 64.472H19.5145L31.0051 46.789ZM57.9138 111.433L20.544 69.4843H25.6486C31.8164 69.4843 37.9874 69.4843 44.1583 69.4843C44.8559 69.4843 45.2185 69.6349 45.4429 70.3633C49.5916 83.8934 53.7558 97.4328 57.9353 110.981C57.9433 111.132 57.9361 111.284 57.9138 111.433ZM62.9999 109.758L62.7448 109.792C58.6175 96.4022 54.4934 83.0124 50.3323 69.5089H75.3971C71.2606 82.9673 67.1282 96.3838 62.9999 109.758ZM68.0153 111.221L67.791 111.092C70.0159 103.839 72.2419 96.5887 74.469 89.3401C76.403 83.0524 78.3412 76.7657 80.2834 70.48C80.4463 69.9576 80.4893 69.4567 81.3252 69.4628C89.1311 69.5028 96.9338 69.4874 104.74 69.4935C104.855 69.5202 104.967 69.5615 105.072 69.6165L68.0153 111.221ZM83.3566 64.4843L94.7888 46.7951L106.236 64.4843H83.3566Z" fill="#97BF57"/>
</svg>
