<svg width="126" height="126" viewBox="0 0 126 126" fill="none" xmlns="http://www.w3.org/2000/svg">
<path d="M122.377 20.0403C119.703 17.397 116.452 15.4108 112.881 14.2381C104.549 11.4723 96.2486 11.9086 88.0063 14.653C84.0849 15.9622 80.4863 17.8614 77.5944 20.8977C75.4924 23.1042 74.134 25.6457 74.2846 28.8049C74.4106 31.5032 75.686 33.6728 77.4192 35.6397C77.6036 35.8486 78.209 36.0207 77.6374 36.4817C74.849 38.7222 72.6073 41.5681 71.0824 44.8039C69.4866 41.4471 67.1396 38.5028 64.223 36.199C64.5058 35.8917 64.7639 35.6089 65.0159 35.3231C68.8328 31.0207 68.8482 25.7656 65.0682 21.4385C63.3707 19.5068 61.3174 17.9199 59.0202 16.7643C50.8701 12.5878 42.256 11.4446 33.3039 13.1441C27.8183 14.1797 22.9811 16.6137 19.0935 20.744C18.4482 21.4324 18.0886 22.173 18.2146 23.1226C18.5248 25.8557 19.1731 28.5396 20.1446 31.1129C23.6633 39.9513 30.117 45.7903 38.8817 49.1493C44.3427 51.2299 49.9758 52.0473 55.7349 50.5138C59.1154 49.6164 61.9151 47.8678 63.3134 44.4474C63.5715 43.8327 63.7313 43.1566 63.971 42.4006C66.7369 45.4308 68.1106 48.968 68.5193 52.8832C69.0418 57.8495 68.6576 62.8403 68.7775 67.8158C68.7775 68.3782 68.6085 68.4919 68.0768 68.5441C66.5159 68.6803 64.9683 68.9403 63.4486 69.3216C55.6366 71.3684 49.8928 76.1133 45.6918 82.8835C45.4122 83.3322 45.1663 83.744 44.564 83.9192C40.5729 85.0624 36.5922 86.2404 32.6216 87.4533C32.0807 87.6162 31.8441 87.567 31.5737 87.0384C30.4796 84.8872 28.7033 83.8639 26.2878 83.8762C21.5367 83.8946 16.7856 83.8608 12.0314 83.8762C8.52489 83.8946 6.21694 86.2302 6.21387 89.7152C6.21387 98.1848 6.21387 106.654 6.21387 115.124C6.21387 118.698 8.58636 121.08 12.1789 121.089C16.8542 121.101 21.5295 121.101 26.2048 121.089C28.9707 121.089 30.9744 119.728 31.8964 117.131C32.0869 116.596 32.2928 116.501 32.7753 116.565C34.7851 116.833 36.795 117.082 38.8079 117.328L53.1658 119.07C57.9107 119.648 62.6711 120.133 67.3946 120.834C71.8445 121.492 76.1869 121.572 80.5201 120.072C90.6277 116.578 100.778 113.203 110.901 109.746C113.311 108.922 115.84 108.369 118.059 107.076C121.018 105.348 122.782 102.773 122.518 99.2574C122.248 95.6618 120.093 93.3139 116.823 92.0139C114.635 91.1442 112.343 91.1534 110.047 91.5898C106.673 92.229 103.298 92.8703 99.9241 93.5136C99.4078 93.612 99.1127 93.6304 99.0605 92.899C98.9589 91.7962 98.7771 90.7024 98.5166 89.6261C95.8152 77.7083 85.0684 69.9916 74.3461 68.7285C73.6423 68.6455 73.3657 68.455 73.3842 67.6867C73.4856 63.0155 73.2244 58.335 73.5901 53.6669C73.8974 49.7271 75.1266 46.1253 77.6467 43.0306C77.8187 42.8217 77.9171 42.4406 78.3258 42.5758C79.1218 46.7369 81.8968 49.051 85.683 50.2803C90.6185 51.8814 95.597 51.5095 100.48 50.0621C111.313 46.8352 119.045 40.2095 122.659 29.2659C123.216 27.5849 123.532 25.827 123.959 24.103V21.8196C123.425 21.205 122.927 20.5903 122.377 20.0403ZM60.6059 33.1904C60.1449 33.6206 59.8192 33.218 59.4904 33.0305C55.4952 30.7503 51.242 29.1092 46.9088 27.6463C45.6457 27.2192 44.5425 27.5326 43.9432 28.4392C43.6583 28.8294 43.5074 29.3012 43.5129 29.7842C43.5184 30.2673 43.6802 30.7355 43.9739 31.119C44.3857 31.7337 45.0434 31.9426 45.701 32.1639C49.5702 33.4639 53.2334 35.2371 56.9673 36.8597C60.0712 38.2088 59.8345 43.381 57.2746 44.85C54.6624 46.3435 51.8812 46.7953 48.9955 46.6017C41.0575 46.0669 34.358 42.8463 29.0199 36.9396C25.7008 33.2703 23.8785 28.8756 23.0364 24.0323C22.9381 23.4607 23.2392 23.1903 23.5865 22.8799C26.7365 20.031 30.5073 18.4883 34.613 17.6647C36.721 17.2726 38.8611 17.0792 41.0052 17.0869C46.7367 17.1761 52.2192 18.2947 57.2746 21.1097C59.1185 22.1392 60.8149 23.3777 62.081 25.1048C64.4105 28.3255 62.8954 31.0391 60.6059 33.1904ZM25.9897 116.378C21.4824 116.378 16.9638 116.378 12.434 116.378C10.9711 116.378 10.8144 116.212 10.8144 114.694C10.8144 110.596 10.8144 106.499 10.8144 102.401C10.8144 98.3037 10.8144 94.2061 10.8144 90.1085C10.8144 88.7963 11.1217 88.4921 12.4217 88.489H25.9774C27.2067 88.489 27.5386 88.7963 27.5386 90.0471C27.5386 98.318 27.5386 106.589 27.5386 114.86C27.5386 116.166 27.3081 116.378 25.9897 116.378ZM111.117 96.1381C112.361 95.8736 113.651 95.9222 114.872 96.2795C116.492 96.7958 117.638 97.7577 117.859 99.5247C118.04 100.905 117.155 102.435 115.523 103.142C113.68 103.944 111.743 104.559 109.835 105.207C99.629 108.683 89.4107 112.112 79.217 115.619C75.6337 116.848 72.0381 116.778 68.3564 116.255C63.6268 115.588 58.8726 115.066 54.1307 114.488L39.8958 112.785C37.6186 112.512 35.3445 112.205 33.0611 111.993C32.3635 111.925 32.1637 111.719 32.1729 111.031C32.2067 108.08 32.1729 105.13 32.1729 102.177C32.1729 99.2236 32.1729 96.1996 32.1729 93.2094C32.1729 92.6777 32.2959 92.3827 32.8367 92.2352C39.4471 90.4159 45.9315 88.1663 52.6126 86.5898C55.19 86.0129 57.8641 86.0234 60.4369 86.6205C64.2446 87.4195 68.0952 88.0157 71.9213 88.7379C73.2442 88.9777 74.4851 89.5475 75.5292 90.3944C77.1549 91.722 77.6006 93.8025 76.6479 95.5358C76.0332 96.6605 75.1113 97.2875 73.7868 97.2875C70.3387 97.2875 66.8875 97.3151 63.4394 97.3305C63.0952 97.3305 62.7479 97.3151 62.4068 97.352C61.0116 97.4995 60.0466 98.4891 60.0712 99.7214C60.0958 101.006 61.1376 102.032 62.585 102.029C68.5224 102.029 74.4721 102.152 80.4094 101.845C83.6608 101.676 86.8631 100.754 90.0961 100.146C97.1121 98.8025 104.097 97.4196 111.113 96.1381H111.117ZM89.3493 81.6143C92.4901 85.0593 94.0635 89.2327 94.4938 93.8578C94.5368 94.328 94.4139 94.5677 93.9467 94.6568C89.7857 95.4374 85.6256 96.2211 81.4666 97.0078C81.4021 97.0078 81.3252 96.9679 81.2545 96.9433C82.5678 91.6636 80.9974 87.8446 76.5434 85.4865C75.0479 84.7219 73.4432 84.1932 71.7861 83.9192C67.247 83.0863 62.7049 82.2535 58.1566 81.4606C56.5155 81.1779 54.8775 81.4606 53.2395 81.7034C52.9322 81.7434 52.6464 81.8018 52.0502 81.9032C56.3895 76.8325 61.5094 73.8668 67.877 73.2706C76.4112 72.4716 83.5902 75.2928 89.3462 81.6143H89.3493ZM118.809 25.8147C115.951 36.9304 108.483 43.1751 97.7267 45.944C94.0389 46.8905 90.3081 47.0411 86.6633 45.7104C83.372 44.515 82.2257 42.1118 83.2521 38.8081C83.3345 38.5201 83.4738 38.2516 83.6617 38.0183C83.8496 37.785 84.0823 37.5917 84.3462 37.4498C88.2153 35.191 92.3364 33.5376 96.5835 32.1301C98.157 31.6077 98.9038 30.5474 98.6303 29.2751C98.3229 27.8615 96.9369 27.0932 95.4096 27.6003C91.0672 29.0477 86.7863 30.6734 82.8096 32.9875C82.0474 33.4331 81.6418 33.2948 81.0917 32.7294C78.1168 29.6562 78.2152 26.583 81.4512 23.5959C84.3615 20.9161 87.9049 19.4287 91.6388 18.3715C94.7728 17.4981 98.0137 17.0678 101.267 17.0931C107.078 17.1207 112.521 18.3562 117.367 21.7889C118.886 22.8737 119.282 23.9708 118.809 25.8147Z" fill="#83729F"/>
</svg>
