<svg width="126" height="126" viewBox="0 0 126 126" fill="none" xmlns="http://www.w3.org/2000/svg">
<path d="M121.984 53.7804C121.809 53.5046 121.716 53.1849 121.716 52.8585C121.716 52.5321 121.809 52.2123 121.984 51.9365V53.7804Z" fill="#1E1C1A"/>
<path d="M73.6947 4.01978C73.4632 4.19453 73.1811 4.28907 72.891 4.28907C72.601 4.28907 72.3189 4.19453 72.0874 4.01978H73.6947Z" fill="#2E2A26"/>
<path d="M77.3765 4.01978C77.1453 4.19672 76.8624 4.2926 76.5713 4.2926C76.2802 4.2926 75.9972 4.19672 75.7661 4.01978H77.3765Z" fill="#1C1B18"/>
<path d="M121.983 50.5597C121.814 50.3691 121.721 50.1231 121.721 49.8682C121.721 49.6134 121.814 49.3674 121.983 49.1768V50.5597Z" fill="#1B1A18"/>
<path d="M121.983 48.2488C121.738 48.0952 121.676 47.9415 121.983 47.7878V48.2488Z" fill="#766D67"/>
<path d="M121.984 47.1026C121.744 45.904 121.848 44.6778 121.676 43.4731C120.97 38.9579 119.586 34.5753 117.571 30.4736C114.266 23.6814 109.394 17.7723 103.356 13.2342C97.3176 8.69598 90.2869 5.65877 82.8437 4.37319C81.4915 4.13348 80.1116 4.26563 78.7625 4.01978H77.3857C76.8659 4.21041 76.2953 4.21041 75.7754 4.01978H73.6949C73.176 4.21019 72.6064 4.21019 72.0876 4.01978H70.2437C70.1638 4.34246 69.8933 4.24104 69.6874 4.26563C60.7998 5.30743 52.6744 8.36831 45.7597 14.0721C30.8241 26.3894 25.2217 42.2623 28.759 61.2576C30.2402 69.2171 33.9526 76.227 39.2938 82.3334C39.6626 82.7544 39.89 83.0095 39.3614 83.5196C37.5421 85.2775 35.7555 87.0692 34.0018 88.8946C33.5562 89.3587 33.3533 89.1681 33.0245 88.8301C32.1456 87.9081 31.2605 87.0138 30.3478 86.138C29.1185 84.9456 27.8524 84.9517 26.6262 86.138C26.1314 86.6174 25.652 87.1152 25.1633 87.6008C19.1492 93.6273 13.1196 99.6323 7.12998 105.68C2.49257 110.367 3.55588 117.816 9.2812 120.889C10.0987 121.332 10.993 121.627 11.8534 121.99H15.2923C17.1915 121.421 18.9801 120.677 20.4276 119.224C26.9489 112.668 33.4752 106.125 40.0068 99.5954C41.236 98.3477 41.236 97.0815 39.973 95.7847C39.1463 94.9303 38.3196 94.0729 37.4468 93.2708C36.9643 92.8252 36.8568 92.564 37.4069 92.0415C39.1545 90.3759 40.8611 88.6662 42.5268 86.9124C43.0769 86.3316 43.3596 86.476 43.8882 86.9124C55.9688 97.0754 69.8411 100.901 85.167 97.2506C104.629 92.6162 116.498 80.0131 121.092 60.5108C121.473 58.8943 121.424 57.2041 121.984 55.6245V53.7806C121.79 53.1812 121.79 52.536 121.984 51.9367V50.5568C121.891 50.3381 121.843 50.1029 121.843 49.8653C121.843 49.6277 121.891 49.3926 121.984 49.1739V48.2519C121.951 48.2231 121.925 48.1876 121.907 48.1479C121.889 48.1081 121.88 48.065 121.88 48.0214C121.88 47.9778 121.889 47.9347 121.907 47.895C121.925 47.8553 121.951 47.8198 121.984 47.7909V47.1026ZM34.1831 98.8332C28.5428 104.467 22.9087 110.102 17.2807 115.736C15.068 117.942 11.8657 117.859 10.0034 115.597C8.34081 113.575 8.49447 110.914 10.4336 108.959C15.406 103.956 20.3856 98.9633 25.3723 93.9807C26.3988 92.9481 27.4098 91.9002 28.3994 90.886L35.3847 97.8806C34.9639 98.1717 34.5625 98.4899 34.1831 98.8332ZM74.7981 93.8762C51.3375 93.8762 32.29 74.7427 32.3054 51.2206C32.3208 27.6986 51.4328 8.60495 74.8688 8.62646C98.3048 8.64797 117.429 27.8153 117.395 51.2913C117.334 74.8348 98.2802 93.8885 74.7981 93.8762Z" fill="#F0C042"/>
<path d="M74.8562 88.323C66.154 88.3524 57.7204 85.3103 51.0408 79.7325C44.3612 74.1547 39.8638 66.3989 38.3408 57.831C34.8804 38.6144 46.9241 19.9757 65.901 15.1784C84.6473 10.4335 104.097 21.2541 110.065 39.7638C110.545 41.2512 110.022 42.5051 108.732 42.963C107.386 43.4393 106.206 42.7909 105.659 41.199C102.877 33.0551 97.7974 26.8042 90.2435 22.6862C71.0577 12.2374 47.3605 23.4545 43.0612 45.0005C39.5209 62.7327 51.3587 80.1391 69.0817 83.2553C84.93 86.0427 100.121 77.109 105.456 61.8261C105.763 60.9041 106.092 59.9576 107.115 59.6257C107.988 59.343 108.87 59.4259 109.574 60.1358C110.278 60.8458 110.419 61.7124 110.105 62.6774C108.557 67.542 106.005 72.028 102.616 75.8459C96.5958 82.6253 89.0727 86.6665 80.1297 88.0587C79.2589 88.1903 78.3819 88.2775 77.5022 88.3199C76.6202 88.3568 75.7382 88.323 74.8562 88.323Z" fill="#F0C042"/>
<path d="M107.269 51.2083C107.295 50.6134 107.551 50.0518 107.982 49.6418C108.414 49.2318 108.988 49.0053 109.584 49.0101C110.179 49.0149 110.75 49.2505 111.175 49.6674C111.6 50.0843 111.847 50.65 111.863 51.2452C111.872 51.5539 111.818 51.8611 111.705 52.1485C111.592 52.4359 111.423 52.6977 111.207 52.9182C110.99 53.1386 110.732 53.3133 110.447 53.4317C110.162 53.5501 109.856 53.6099 109.547 53.6074C109.238 53.6049 108.933 53.5403 108.65 53.4173C108.367 53.2943 108.111 53.1155 107.898 52.8916C107.686 52.6677 107.52 52.4032 107.412 52.114C107.304 51.8248 107.255 51.5168 107.269 51.2083Z" fill="#F0C042"/>
<path d="M93.3138 41.6938C91.1626 36.9334 85.0162 35.6212 81.2147 39.2107C78.286 41.9765 75.4863 44.8714 72.6651 47.7449C72.1611 48.255 71.8999 48.2581 71.4359 47.7449C70.5324 46.7553 69.5704 45.8149 68.5932 44.8929C66.9152 43.3133 64.9054 42.545 62.6128 42.8155C59.4659 43.1904 57.1794 44.8837 56.1591 47.92C55.1388 50.9563 55.7781 53.6699 58.0368 55.9502C61.3272 59.2774 64.6319 62.5893 67.9509 65.8858C70.3695 68.2828 73.75 68.3228 76.1563 65.9349C81.3847 60.7495 86.5876 55.5384 91.7649 50.3017C92.8577 49.1894 93.5921 47.775 93.8731 46.2411C94.1541 44.7073 93.9689 43.1244 93.3414 41.6968L93.3138 41.6938ZM88.6518 46.7123C88.2004 47.2344 87.7213 47.732 87.2166 48.2028L73.3228 62.1396C72.1181 63.3443 71.9706 63.3412 70.7413 62.1089C67.6518 59.0152 64.5591 55.9215 61.4634 52.8279C60.7904 52.1548 60.3018 51.4111 60.3264 50.4062C60.3878 49.1493 60.9656 48.1997 62.1303 47.7172C63.295 47.2347 64.3983 47.3576 65.3203 48.2488C66.8906 49.767 68.4211 51.322 69.973 52.8586C71.4758 54.3491 72.5852 54.3522 74.088 52.8586C77.3415 49.6072 80.5919 46.3496 83.8392 43.0859C84.7458 42.164 85.7384 41.5493 87.109 41.9704C89.248 42.6004 90.0439 44.9944 88.6518 46.7123Z" fill="#F0C042"/>
</svg>
