<svg width="126" height="126" viewBox="0 0 126 126" fill="none" xmlns="http://www.w3.org/2000/svg">
<path d="M121.433 68.624C120.296 61.8446 119.17 55.0641 118.053 48.2827C116.913 41.3527 115.782 34.4196 114.629 27.4896C114.304 25.5535 112.786 24.7698 111.086 25.6703C105.048 28.8397 99.0393 32.0358 93.0589 35.2586C91.7927 35.9408 91.4178 37.0256 91.9003 38.3717C92.1352 39.0566 92.4133 39.7258 92.7331 40.3754C93.0681 41.0331 92.853 41.2974 92.2045 41.5002C88.9947 42.6154 85.4993 42.5948 82.3028 41.4418C75.9905 39.2445 69.7581 39.4504 63.6363 42.1794C63.4367 42.2801 63.2162 42.3326 62.9925 42.3326C62.7689 42.3326 62.5483 42.2801 62.3487 42.1794C56.2239 39.4627 49.9915 39.2476 43.6822 41.4602C41.1038 42.3657 38.3297 42.5631 35.649 42.0318C32.8493 41.5063 32.8524 41.494 33.8973 38.8911C33.9403 38.7866 33.9618 38.6729 34.0018 38.5653C34.5918 36.998 34.2661 35.9623 32.8278 35.1848C26.9027 32.0113 20.9705 28.8551 15.0311 25.7164C13.2394 24.7698 11.7182 25.5074 11.3709 27.4927C10.409 33.175 9.48707 38.8634 8.54976 44.5549C7.41883 51.4112 6.31249 58.2735 5.14161 65.1206C4.79434 67.1673 4.65912 69.2601 4.00146 71.2485V73.3198C4.52083 73.8975 4.98795 74.4876 5.80234 74.7673C9.01073 75.8675 12.1915 77.0537 15.3937 78.1785C16.9303 78.7163 17.9752 78.2246 18.6267 76.7249C18.9893 75.892 19.3181 75.0469 19.7054 74.1065C21.1375 75.2375 22.4712 76.3376 23.8419 77.3456C24.209 77.6016 24.5213 77.9284 24.7604 78.3068C24.9994 78.6852 25.1605 79.1076 25.234 79.5491C25.5847 81.0478 26.39 82.4015 27.5398 83.4248C28.6896 84.448 30.1276 85.0909 31.6569 85.2652C32.3668 85.339 32.5512 85.5879 32.6649 86.2855C33.215 89.666 35.5138 92.2536 38.6269 92.7576C39.9115 92.9635 40.2341 93.4368 40.4462 94.6015C41.11 98.194 44.7302 100.898 48.3381 100.551C49.0634 100.48 49.2293 100.711 49.4014 101.298C49.7 102.393 50.2384 103.407 50.9777 104.268C51.7169 105.129 52.6385 105.815 53.6755 106.276C54.7126 106.736 55.8391 106.961 56.9735 106.932C58.1079 106.903 59.2218 106.623 60.2343 106.111C60.8336 105.803 61.1563 105.803 61.6787 106.276C65.8306 110.072 71.8386 108.818 74.1404 103.689C74.3709 103.176 74.5215 103.04 75.1085 103.197C79.5799 104.38 83.6304 102.109 84.8289 97.7238C84.9918 97.1276 85.1363 97.057 85.7171 97.0938C89.3188 97.3366 92.8468 94.8381 93.569 91.3654C93.8395 90.0624 94.2421 89.5215 95.6342 89.2142C99.9704 88.2216 102.328 83.9745 101.138 79.6628C100.988 79.1219 100.905 78.7839 101.522 78.4735C103.329 77.57 105.103 76.5958 106.9 75.6431L107.097 76.101C108.124 78.4889 108.873 78.8146 111.363 77.9265C114.092 76.9523 116.805 75.9289 119.55 75.0039C120.555 74.6658 121.394 74.1956 121.993 73.3229V71.2516C121.529 70.431 121.581 69.5029 121.433 68.624ZM16.1128 70.4955C15.7594 71.3683 15.6949 72.6806 14.9051 72.9541C14.2351 73.1907 13.221 72.4655 12.3605 72.1581C12.0532 72.0444 11.7213 71.9061 11.3986 71.7894C8.9001 70.8674 8.91239 70.8858 9.33956 68.2982C11.1036 57.6077 12.8645 46.9131 14.6223 36.2143C14.8897 34.6009 15.1786 32.9906 15.4859 31.2112C19.8713 33.556 24.0908 35.8548 28.3748 38.0736C29.2322 38.5192 28.8296 38.9679 28.6329 39.4535C24.4698 49.8039 20.2964 60.1513 16.1128 70.4955ZM34.1554 80.3297C33.8002 80.5921 33.3676 80.7284 32.9261 80.7169C31.4541 80.6401 30.569 80.1023 30.0312 79.082C29.4934 78.0617 29.4965 76.9123 30.2402 75.9535C31.1838 74.742 32.2727 73.6511 33.4824 72.7052C34.041 72.2889 34.729 72.0839 35.4244 72.1267C36.1197 72.1694 36.7774 72.4571 37.2808 72.9387C38.2827 73.8607 38.6269 75.4741 37.8709 76.5989C36.856 78.0493 35.5992 79.3145 34.1554 80.3389V80.3297ZM40.646 88.2984C39.0909 88.2769 38.1874 87.733 37.625 86.6512C37.0626 85.5695 37.0749 84.4385 37.874 83.5319C39.8503 81.2888 41.969 79.1752 44.217 77.2043C45.3295 76.2362 47.0504 76.4483 48.0953 77.4686C48.5863 77.9568 48.8955 78.5982 48.9715 79.2864C49.0475 79.9746 48.8858 80.6681 48.5133 81.2517C48.2527 81.6295 47.9541 81.9797 47.6221 82.2965C46.0025 83.9315 44.3706 85.551 42.7419 87.1767C42.0688 87.8559 41.319 88.3507 40.646 88.3076V88.2984ZM49.6811 95.3391C49.4868 95.528 49.2553 95.6745 49.0014 95.7692C48.7474 95.8639 48.4765 95.9047 48.206 95.8892C46.697 95.8892 45.7474 95.3268 45.2127 94.1835C44.678 93.0403 44.7302 91.8879 45.5999 90.9782C47.5852 88.9008 49.6104 86.8571 51.7063 84.8903C52.8034 83.8608 54.6043 84.0206 55.683 85.0439C56.7617 86.0673 57.0137 87.8774 56.018 89.0053C54.0227 91.2334 51.9073 93.3509 49.6811 95.3483V95.3391ZM61.2393 99.0115C60.4346 99.9836 59.5371 100.875 58.5595 101.673C57.4255 102.595 55.852 102.429 54.7733 101.458C54.2443 101.009 53.8951 100.385 53.79 99.6992C53.685 99.0136 53.8312 98.3132 54.2017 97.7269C55.0545 96.503 56.1192 95.4414 57.3456 94.5923C57.7148 94.3226 58.164 94.1851 58.6209 94.202C60.0961 94.2604 60.9934 94.8351 61.5343 95.9015C61.811 96.3889 61.9311 96.9496 61.8784 97.5076C61.8256 98.0656 61.6025 98.5938 61.2393 99.0207V99.0115ZM69.1097 102.97C68.553 103.474 67.8321 103.758 67.0812 103.77C66.3303 103.782 65.6008 103.521 65.0285 103.034C64.7673 102.804 64.3309 102.607 64.7396 102.112C66.1932 100.382 66.6819 98.3631 66.3991 95.8431C67.5423 96.9893 68.5073 97.8591 69.3586 98.8271C69.8663 99.4151 70.1244 100.178 70.0779 100.954C70.0314 101.729 69.684 102.456 69.1097 102.979V102.97ZM94.6692 84.6936C93.2525 85.1238 92.1584 84.5737 91.1658 83.578C86.4823 78.8658 81.7875 74.1752 77.0815 69.506C76.5621 68.9897 76.0489 68.5041 75.2376 68.4611C74.7766 68.41 74.3111 68.5024 73.9047 68.7257C73.4982 68.949 73.1706 69.2924 72.9665 69.7088C72.7476 70.0939 72.6542 70.5377 72.6994 70.9784C72.7446 71.419 72.926 71.8347 73.2185 72.1674C73.489 72.4924 73.7795 72.8003 74.0882 73.0893C78.6754 77.6724 83.2657 82.2504 87.8591 86.8233C88.6243 87.5824 89.2143 88.4029 89.1467 89.5215C89.1473 90.1006 88.9711 90.6661 88.6416 91.1422C88.3121 91.6184 87.845 91.9825 87.3028 92.186C86.739 92.4412 86.1092 92.5127 85.5025 92.3902C84.8959 92.2678 84.343 91.9577 83.9223 91.5037C82.1921 89.8135 80.4927 88.0956 78.7809 86.39C77.0139 84.6291 75.256 82.862 73.4828 81.1103C72.318 79.9578 70.9136 79.838 69.9302 80.7814C68.8945 81.7772 68.9867 83.1816 70.2099 84.4109C73.1601 87.3734 76.1185 90.3288 79.0852 93.277C79.6291 93.8178 80.1577 94.3679 80.3144 95.17C80.4567 95.8105 80.3902 96.4797 80.1248 97.0796C79.8594 97.6796 79.4089 98.1789 78.8393 98.5044C78.2475 98.8311 77.5637 98.9513 76.8959 98.8461C76.2281 98.741 75.6143 98.4164 75.1515 97.9236C73.0372 95.8584 70.9597 93.7594 68.87 91.6728C67.1674 89.9764 66.4514 89.9426 64.6628 91.5714C64.3401 91.8787 64.211 91.7035 64.0143 91.5283C63.2518 90.8255 62.3489 90.2924 61.3653 89.9641C60.8828 89.8104 60.978 89.5799 61.0579 89.1958C62.0629 84.4016 59.4322 80.4618 54.6043 79.6136C53.8944 79.4907 53.6823 79.2664 53.5809 78.5934C53.4422 77.4703 53.0536 76.3925 52.4438 75.4393C51.8339 74.4861 51.0182 73.6816 50.0567 73.085C49.0951 72.4884 48.0121 72.1148 46.8872 71.9916C45.7623 71.8684 44.6241 71.9988 43.5562 72.3733C42.8218 72.6222 42.5083 72.5761 42.1303 71.7955C41.6116 70.7127 40.8448 69.7675 39.8924 69.0366C38.9399 68.3056 37.8285 67.8096 36.6484 67.5886C35.4682 67.3677 34.2527 67.4281 33.1003 67.765C31.9479 68.1019 30.8912 68.7057 30.0159 69.5275C28.8603 70.5908 27.7694 71.731 26.7091 72.8895C26.3619 73.2706 26.1898 73.2645 25.821 72.9633C24.6378 71.9922 23.4485 71.018 22.2069 70.1237C21.6138 69.6996 21.62 69.3277 21.8658 68.7223C24.4985 62.2441 27.1179 55.7495 29.7239 49.2384C30.1511 48.1782 30.5844 47.1179 30.9839 46.0485C31.1499 45.5967 31.3527 45.5353 31.8106 45.7074C36.362 47.4375 40.9133 47.3822 45.5016 45.7596C49.391 44.3668 53.6207 44.2366 57.5883 45.3877C55.4525 46.5832 53.4488 47.6066 51.5434 48.7897C48.5471 50.649 47.072 53.4425 47.4223 56.9214C47.7972 60.6798 49.9239 63.2398 53.5686 64.426C55.4648 65.0407 57.3363 64.8839 59.1925 64.2017C63.1661 62.7389 67.1551 61.3221 71.1195 59.8378C73.492 58.9496 75.5387 59.343 77.3304 61.1347C83.4091 67.2073 89.4663 73.3044 95.5881 79.3309C97.598 81.3008 96.7713 84.0636 94.6692 84.7028V84.6936ZM104.39 71.6972C102.518 72.656 100.662 73.6394 98.8272 74.6658C98.1542 75.0438 97.7547 74.9732 97.1892 74.4108C91.762 68.9375 86.2733 63.5256 80.8492 58.0461C78.6273 55.8027 76.0458 54.5704 72.8589 54.6995C71.8658 54.7516 70.8869 54.959 69.9579 55.3141C65.8367 56.8138 61.7187 58.3289 57.5853 59.7917C54.8563 60.7597 52.2687 59.1771 52.0536 56.4112C51.9491 55.0314 52.3609 53.6915 53.5717 53.0307C58.1999 50.4462 62.6437 47.499 67.6345 45.6121C69.6229 44.8561 71.7249 44.6656 73.7809 44.5672C76.1396 44.6157 78.4764 45.0304 80.7078 45.7965C84.9818 47.3927 89.6904 47.3807 93.9563 45.7627C94.5709 45.5383 94.8137 45.5568 95.0841 46.2329C98.3212 54.3317 101.588 62.4182 104.884 70.4925C105.158 71.1932 104.952 71.4206 104.39 71.7064V71.6972ZM115.997 71.3192C114.606 71.7349 113.244 72.241 111.919 72.8342C111.123 73.1784 110.837 72.9848 110.53 72.2196C107.303 64.1187 104.033 56.0332 100.779 47.9415C99.614 45.0435 98.4707 42.1394 97.2784 39.2537C97.0479 38.6944 97.0294 38.4239 97.6379 38.1043C101.897 35.8671 106.132 33.5837 110.527 31.2327C110.988 34.0447 111.424 36.6722 111.854 39.3029C112.961 46.0454 114.065 52.7879 115.167 59.5305C115.739 62.9939 116.311 66.4574 116.919 69.9147C117.066 70.726 116.842 71.0887 115.997 71.3284V71.3192Z" fill="#1C7DBB"/>
</svg>
