<svg width="167" height="187" viewBox="0 0 167 187" fill="none" xmlns="http://www.w3.org/2000/svg">
<g clip-path="url(#clip0_1623_1407)">
<rect width="167" height="187" fill="#1C7DBB"/>
<path d="M9.14416 43.9437H49.9042V50.7282H31.0482C31.0482 50.7282 30.4002 59.2963 30.4002 64.4165L30.0722 80.7963H80.9362V67.5619C80.9362 67.5619 80.8162 54.1204 80.4482 50.7282H68.0402V43.9437H115.744V50.7282H95.6642C95.6642 50.7282 95.2962 58.1178 95.1762 63.2061L94.9282 80.7247H135.728V91.5463H95.0882C95.0882 91.5463 94.9602 98.4104 94.9602 101.707C94.9602 101.707 95.0882 116.837 95.3282 119.767C95.3282 119.767 96.0882 127.396 96.1842 128.128C96.2802 128.861 120.184 128.128 120.184 128.128V135.032H66.5762V127.865H80.1762C80.1762 127.865 80.7842 118.899 80.9042 113.811C80.9042 113.811 81.3922 92.3745 81.0242 91.403H30.3122C30.3122 91.403 29.7042 117.569 31.1682 127.865H45.6482V135.032H-9.83984V127.778H15.5922C15.5922 127.778 16.9282 62.8558 15.7122 50.5371H-0.799844L9.14416 43.9437Z" fill="white"/>
<path d="M147.704 80.6848V89.4918H159.872C159.872 89.4918 152 103.539 151.2 104.343C150.4 105.147 140.32 121.63 140 122.204L118.984 89.1733L101.952 89.4998L104.224 91.5543C104.224 91.5543 119.064 112.258 120.608 114.774C122.152 117.291 128.48 127.037 128.8 128.733C128.8 128.733 129.208 156.994 128.48 161.111H115.496V169.273H155.656L161.656 161.31H143.32C143.32 161.31 142.432 133.129 143.32 127.069C143.32 127.069 152.408 110.841 168.8 89.5237H181.944V80.6848H147.704Z" fill="white"/>
<path d="M84.0002 201.563C64.1176 201.563 44.6816 195.694 28.1498 184.699C11.6181 173.704 -1.26682 158.076 -8.87555 139.792C-16.4843 121.508 -18.4751 101.389 -14.5962 81.9788C-10.7173 62.5685 -1.14291 44.7391 12.9162 30.7451C26.9753 16.7511 44.8876 7.22104 64.3882 3.3601C83.8887 -0.50084 104.102 1.48073 122.471 9.05424C140.84 16.6277 156.54 29.453 167.586 45.9082C178.632 62.3634 184.528 81.7095 184.528 101.5C184.499 128.029 173.898 153.463 155.051 172.222C136.205 190.981 110.653 201.533 84.0002 201.563ZM84.0002 6.58946C65.1414 6.58946 46.706 12.1559 31.0255 22.5848C15.3449 33.0137 3.12342 47.8367 -4.09355 65.1793C-11.3105 82.522 -13.1988 101.605 -9.51963 120.016C-5.84045 138.427 3.24095 155.338 16.5762 168.612C29.9114 181.885 46.9015 190.925 65.398 194.587C83.8944 198.249 103.067 196.37 120.49 189.186C137.913 182.002 152.805 169.837 163.282 154.229C173.76 138.622 179.352 120.272 179.352 101.5C179.323 76.3372 169.267 52.2135 151.392 34.4207C133.516 16.6279 109.28 6.61896 84.0002 6.58946Z" fill="white"/>
</g>
<defs>
<clipPath id="clip0_1623_1407">
<rect width="167" height="187" fill="white"/>
</clipPath>
</defs>
</svg>
